HIERARCHY
ROOT Hips
{
	OFFSET 0.000000 0.000000 0.000000
	CHANNELS 6 Xposition Yposition Zposition Zrotation Yrotation Xrotation 
	JOINT LHipJoint
	{
		OFFSET 0.000000 0.000000 0.000000
		CHANNELS 3 Zrotation Yrotation Xrotation
		JOINT LeftUpLeg
		{
			OFFSET 1.363060 -1.794630 0.839290
			CHANNELS 3 Zrotation Yrotation Xrotation
			JOINT LeftLeg
			{
				OFFSET 2.448110 -6.726130 0.000000
				CHANNELS 3 Zrotation Yrotation Xrotation
				JOINT LeftFoot
				{
					OFFSET 2.562200 -7.039590 0.000000
					CHANNELS 3 Zrotation Yrotation Xrotation
					JOINT LeftToeBase
					{
						OFFSET 0.157640 -0.433110 2.322550
						CHANNELS 3 Zrotation Yrotation Xrotation
						End Site
						{
							OFFSET 0.000000 0.000000 0.000000
						}
					}
				}
			}
		}
	}
	JOINT RHipJoint
	{
		OFFSET 0.000000 0.000000 0.000000
		CHANNELS 3 Zrotation Yrotation Xrotation
		JOINT RightUpLeg
		{
			OFFSET -1.305520 -1.794630 0.839290
			CHANNELS 3 Zrotation Yrotation Xrotation
			JOINT RightLeg
			{
				OFFSET -2.542530 -6.985550 0.000000
				CHANNELS 3 Zrotation Yrotation Xrotation
				JOINT RightFoot
				{
					OFFSET -2.568260 -7.056230 0.000000
					CHANNELS 3 Zrotation Yrotation Xrotation
					JOINT RightToeBase
					{
						OFFSET -0.164730 -0.452590 2.363150
						CHANNELS 3 Zrotation Yrotation Xrotation
						End Site
						{
							OFFSET 0.000000 0.000000 0.000000
						}
					}
				}
			}
		}
	}
	JOINT LowerBack
	{
		OFFSET 0.000000 0.000000 0.000000
		CHANNELS 3 Zrotation Yrotation Xrotation
		JOINT Spine
		{
			OFFSET 0.028270 2.035590 -0.193380
			CHANNELS 3 Zrotation Yrotation Xrotation
			JOINT Spine1
			{
				OFFSET 0.056720 2.048850 -0.042750
				CHANNELS 3 Zrotation Yrotation Xrotation
				JOINT Neck
				{
					OFFSET 0.000000 0.000000 0.000000
					CHANNELS 3 Zrotation Yrotation Xrotation
					JOINT Neck1
					{
						OFFSET -0.054170 1.746240 0.172020
						CHANNELS 3 Zrotation Yrotation Xrotation
						JOINT Head
						{
							OFFSET 0.104070 1.761360 -0.123970
							CHANNELS 3 Zrotation Yrotation Xrotation
							End Site
							{
								OFFSET 0.000000 0.000000 0.000000
							}
						}
					}
				}
				JOINT LeftShoulder
				{
					OFFSET 0.000000 0.000000 0.000000
					CHANNELS 3 Zrotation Yrotation Xrotation
					JOINT LeftArm
					{
						OFFSET 3.362410 1.200890 -0.311210
						CHANNELS 3 Zrotation Yrotation Xrotation
						JOINT LeftForeArm
						{
							OFFSET 4.983000 -0.000000 -0.000000
							CHANNELS 3 Zrotation Yrotation Xrotation
							JOINT LeftHand
							{
								OFFSET 3.483560 -0.000000 -0.000000
								CHANNELS 3 Zrotation Yrotation Xrotation
								JOINT LeftFingerBase
								{
									OFFSET 0.000000 0.000000 0.000000
									CHANNELS 3 Zrotation Yrotation Xrotation
									JOINT LeftHandIndex1
									{
										OFFSET 0.715260 -0.000000 -0.000000
										CHANNELS 3 Zrotation Yrotation Xrotation
										End Site
										{
											OFFSET 0.000000 0.000000 0.000000
										}
									}
								}
								JOINT LThumb
								{
									OFFSET 0.000000 0.000000 0.000000
									CHANNELS 3 Zrotation Yrotation Xrotation
									End Site
									{
										OFFSET 0.000000 0.000000 0.000000
									}
								}
							}
						}
					}
				}
				JOINT RightShoulder
				{
					OFFSET 0.000000 0.000000 0.000000
					CHANNELS 3 Zrotation Yrotation Xrotation
					JOINT RightArm
					{
						OFFSET -3.136600 1.374050 -0.404650
						CHANNELS 3 Zrotation Yrotation Xrotation
						JOINT RightForeArm
						{
							OFFSET -5.241900 -0.000000 -0.000000
							CHANNELS 3 Zrotation Yrotation Xrotation
							JOINT RightHand
							{
								OFFSET -3.444170 -0.000000 -0.000000
								CHANNELS 3 Zrotation Yrotation Xrotation
								JOINT RightFingerBase
								{
									OFFSET 0.000000 0.000000 0.000000
									CHANNELS 3 Zrotation Yrotation Xrotation
									JOINT RightHandIndex1
									{
										OFFSET -0.622530 -0.000000 -0.000000
										CHANNELS 3 Zrotation Yrotation Xrotation
										End Site
										{
											OFFSET 0.000000 0.000000 0.000000
										}
									}
								}
								JOINT RThumb
								{
									OFFSET 0.000000 0.000000 0.000000
									CHANNELS 3 Zrotation Yrotation Xrotation
									End Site
									{
										OFFSET 0.000000 0.000000 0.000000
									}
								}
							}
						}
					}
				}
			}
		}
	}
}
MOTION
Frames: 7
Frame Time: 0.008333
-4.947787 16.986455 0.589116 166.786016 -85.044394 -149.961331 -10.155670 2.191622 0.825233 -14.493847 -0.047756 -16.356522 -2.017854 0.676024 27.676352 1.674490 7.855078 -13.644988 -1.015700 0.000000 -40.303400 10.080726 -0.092290 1.542256 4.422555 6.724040 -37.024107 -0.541017 -3.552412 58.836197 -2.553826 -11.074640 -13.700650 0.814800 0.000000 -28.951000 -0.977038 -2.980920 -2.047863 -0.335943 -2.929457 -3.373095 -5.460802 -2.858251 -1.125594 8.865097 -14.438931 -7.907986 -3.164905 -0.244704 -0.035112 0.000000 0.000000 0.000000 5.077241 8.044301 -1.278965 -77.846948 3.612843 28.985047 -179.545032 -67.273975 179.917997 9.460001 -10.230046 -0.940482 -0.258231 0.878867 0.000000 0.000000 0.000000 0.000000 0.000000 0.000000 0.000000 8.129213 -9.413310 -1.407305 72.203621 -10.491200 31.923064 179.850021 76.816039 179.969927 -4.031405 9.942446 -0.371552 0.027988 -0.571154 -0.000000 0.000000 0.000000 0.000000 0.000000 0.000000 0.000000 
-5.190776 17.101931 0.580050 171.132074 -85.082347 -154.415081 -10.318364 2.343161 0.729517 -13.782608 0.736178 -14.746785 -1.924225 0.655811 25.766554 1.483864 7.599931 -10.684704 -0.514000 -0.000001 -44.191901 9.823179 -0.074524 1.653715 5.053734 7.053568 -36.844079 -0.304609 -3.318187 55.280174 -2.535978 -10.788780 -12.929248 0.612200 -0.000000 -29.330400 -0.447625 -3.067827 -2.037219 -0.199604 -3.052238 -3.375918 -5.323497 -2.984570 -1.116330 8.693191 -14.686638 -7.927079 -3.151146 -0.244064 -0.034972 0.000000 0.000000 0.000000 5.364835 7.916844 -1.311876 -78.368729 3.719993 29.236896 -179.572179 -66.663131 179.917718 9.291347 -10.163133 -0.918632 -0.252799 0.888991 0.000000 0.000000 0.000000 0.000000 0.000000 0.000000 0.000000 7.851338 -9.707981 -1.469075 71.489520 -11.217015 32.059746 179.841165 76.089381 179.970376 -3.901477 10.009700 -0.361493 0.023343 -0.570764 -0.000000 0.000000 0.000000 0.000000 0.000000 0.000000 0.000000 
-5.433444 17.219085 0.569223 175.434052 -85.097897 -158.864113 -10.478811 2.505577 0.606617 -13.046396 1.614813 -13.155638 -1.826497 0.660238 23.877337 1.287258 7.217860 -7.416463 -0.014701 -0.000000 -48.253500 9.578106 -0.084257 1.749842 5.693152 7.303566 -36.454564 -0.053599 -3.067111 51.361811 -2.475134 -10.358646 -11.870541 0.351101 -0.000000 -30.039700 0.071985 -3.149769 -1.983867 -0.070005 -3.167902 -3.371019 -5.200592 -3.102514 -1.102961 8.537177 -14.923569 -7.943407 -3.136223 -0.243208 -0.035383 0.000000 0.000000 0.000000 5.601088 7.825242 -1.336562 -78.772346 3.784429 29.547477 -179.595087 -66.136912 179.917771 9.125918 -10.086851 -0.896402 -0.247882 0.897193 -0.000000 0.000000 0.000000 0.000000 0.000000 0.000000 0.000000 7.598588 -9.995281 -1.530973 70.851226 -11.864745 32.133331 179.834405 75.477500 179.970679 -3.815663 10.036539 -0.354132 0.019981 -0.569002 -0.000000 0.000000 0.000000 0.000000 0.000000 0.000000 0.000000 
-5.675911 17.335823 0.556796 179.636734 -85.095392 -163.242624 -10.636850 2.674838 0.461281 -12.284708 2.567764 -11.598217 -1.728556 0.687297 22.031114 1.093888 6.683594 -3.901435 0.438100 -0.000000 -52.230600 9.347753 -0.122313 1.837129 6.337062 7.481849 -35.870417 0.213716 -2.796934 47.098497 -2.366148 -9.786439 -10.514346 0.043600 0.000000 -31.095200 0.581845 -3.226051 -1.899407 0.054114 -3.275856 -3.359733 -5.087437 -3.211760 -1.082431 8.387407 -15.159220 -7.959122 -3.115677 -0.241784 -0.036678 0.000000 0.000000 0.000000 5.798616 7.765056 -1.356283 -79.082600 3.811179 29.904458 -179.613950 -65.691588 179.918237 8.944821 -10.010586 -0.872697 -0.242573 0.903869 0.000000 0.000000 0.000000 0.000000 0.000000 0.000000 0.000000 7.339222 -10.285390 -1.591353 70.308750 -12.439806 32.148898 179.829795 74.975269 179.970888 -3.759700 10.038248 -0.348674 0.017464 -0.566175 -0.000000 0.000000 0.000000 0.000000 0.000000 0.000000 0.000000 
-5.918370 17.449896 0.542783 -176.341421 -85.082039 -167.453676 -10.790543 2.845893 0.301906 -11.505751 3.557656 -10.096938 -1.633193 0.733226 20.261742 0.915763 5.990701 -0.224475 0.795201 0.000000 -55.856200 9.135437 -0.186783 1.924691 6.974109 7.598399 -35.123157 0.498824 -2.505000 42.525135 -2.207191 -9.087410 -8.864389 -0.291300 -0.000000 -32.483800 1.078103 -3.297187 -1.801820 0.173854 -3.376704 -3.344646 -4.978213 -3.313429 -1.052343 8.234489 -15.403391 -7.977040 -3.085030 -0.239450 -0.039278 0.000000 0.000000 0.000000 5.975110 7.729135 -1.374522 -79.328699 3.814974 30.292068 -179.630600 -65.314139 179.919151 8.732875 -9.942226 -0.846726 -0.235950 0.909415 -0.000000 0.000000 0.000000 0.000000 0.000000 0.000000 0.000000 7.040943 -10.587604 -1.648717 69.877336 -12.950252 32.114765 179.827267 74.568372 179.971059 -3.714778 10.031966 -0.344019 0.015204 -0.562741 -0.000000 0.000000 0.000000 0.000000 0.000000 0.000000 0.000000 
-6.161051 17.559026 0.527187 -172.604047 -85.067518 -171.377498 -10.936629 3.013145 0.138147 -10.727829 4.537724 -8.675222 -1.542161 0.792738 18.609377 0.765332 5.155699 3.510859 1.014800 0.000000 -58.897300 8.945361 -0.272446 2.021601 7.585725 7.662990 -34.254677 0.801987 -2.188669 37.696273 -2.000240 -8.287525 -6.938824 -0.630300 0.000000 -34.158899 1.552151 -3.364745 -1.709962 0.289566 -3.471910 -3.328718 -4.867442 -3.409612 -1.011497 8.070893 -15.663755 -8.000046 -3.040659 -0.235930 -0.043622 0.000000 0.000000 0.000000 6.148303 7.709555 -1.394228 -79.537016 3.815204 30.694110 -179.647743 -64.988226 179.920489 8.482268 -9.885622 -0.818091 -0.227319 0.914070 -0.000000 0.000000 0.000000 0.000000 0.000000 0.000000 0.000000 6.677616 -10.908185 -1.701714 69.565503 -13.406852 32.040417 179.826679 74.238484 179.971244 -3.661405 10.033607 -0.338769 0.012594 -0.559182 -0.000000 0.000000 0.000000 0.000000 0.000000 0.000000 0.000000 
-6.404445 17.661145 0.509677 -169.354647 -85.067121 -174.786804 -11.070901 3.172140 -0.015875 -9.987521 5.448469 -7.365482 -1.456417 0.858995 17.120317 0.653357 4.228127 7.185710 1.076300 0.000000 -61.173100 8.782478 -0.370471 2.137531 8.139542 7.679542 -33.329812 1.119899 -1.846428 32.696197 -1.751201 -7.416585 -4.774214 -0.948000 -0.000000 -36.037899 1.983331 -3.432260 -1.649241 0.399312 -3.564418 -3.316453 -4.750739 -3.504033 -0.960371 7.892571 -15.946763 -8.030261 -2.980413 -0.231092 -0.049831 0.000000 0.000000 0.000000 6.336472 7.691378 -1.418474 -79.729179 3.842923 31.091319 -179.669273 -64.689582 179.922191 8.188157 -9.845602 -0.786494 -0.216017 0.918102 -0.000000 0.000000 0.000000 0.000000 0.000000 0.000000 0.000000 6.233226 -11.251397 -1.749006 69.375532 -13.824378 31.935462 179.827556 73.962595 179.971491 -3.582085 10.055609 -0.331726 0.009131 -0.555958 -0.000001 0.000000 0.000000 0.000000 0.000000 0.000000 0.000000 
